<svg width="46" height="20" viewBox="0 0 46 20" fill="none" xmlns="http://www.w3.org/2000/svg">
<path opacity="0.5" d="M0 7C0 3.13401 3.13401 0 7 0H39C42.866 0 46 3.13401 46 7V13C46 16.866 42.866 20 39 20H7C3.13401 20 0 16.866 0 13V7Z" fill="#242730"/>
<path d="M13.22 7.59L10.44 14H9.29L12.1 7.71H8.4V6.74H13.22V7.59ZM24.6134 8.4C25.0467 8.4 25.4334 8.49 25.7734 8.67C26.12 8.85 26.39 9.11667 26.5834 9.47C26.7834 9.82333 26.8834 10.25 26.8834 10.75V14H25.7534V10.92C25.7534 10.4267 25.63 10.05 25.3834 9.79C25.1367 9.52333 24.8 9.39 24.3734 9.39C23.9467 9.39 23.6067 9.52333 23.3534 9.79C23.1067 10.05 22.9834 10.4267 22.9834 10.92V14H21.8534V10.92C21.8534 10.4267 21.73 10.05 21.4834 9.79C21.2367 9.52333 20.9 9.39 20.4734 9.39C20.0467 9.39 19.7067 9.52333 19.4534 9.79C19.2067 10.05 19.0834 10.4267 19.0834 10.92V14H17.9434V8.49H19.0834V9.12C19.27 8.89333 19.5067 8.71667 19.7934 8.59C20.08 8.46333 20.3867 8.4 20.7134 8.4C21.1534 8.4 21.5467 8.49333 21.8934 8.68C22.24 8.86667 22.5067 9.13667 22.6934 9.49C22.86 9.15667 23.12 8.89333 23.4734 8.7C23.8267 8.5 24.2067 8.4 24.6134 8.4ZM29.414 7.76C29.2073 7.76 29.034 7.69 28.894 7.55C28.754 7.41 28.684 7.23667 28.684 7.03C28.684 6.82333 28.754 6.65 28.894 6.51C29.034 6.37 29.2073 6.3 29.414 6.3C29.614 6.3 29.784 6.37 29.924 6.51C30.064 6.65 30.134 6.82333 30.134 7.03C30.134 7.23667 30.064 7.41 29.924 7.55C29.784 7.69 29.614 7.76 29.414 7.76ZM29.974 8.49V14H28.834V8.49H29.974ZM34.7507 8.4C35.184 8.4 35.5707 8.49 35.9107 8.67C36.2574 8.85 36.5274 9.11667 36.7207 9.47C36.914 9.82333 37.0107 10.25 37.0107 10.75V14H35.8807V10.92C35.8807 10.4267 35.7574 10.05 35.5107 9.79C35.264 9.52333 34.9274 9.39 34.5007 9.39C34.074 9.39 33.734 9.52333 33.4807 9.79C33.234 10.05 33.1107 10.4267 33.1107 10.92V14H31.9707V8.49H33.1107V9.12C33.2974 8.89333 33.534 8.71667 33.8207 8.59C34.114 8.46333 34.424 8.4 34.7507 8.4Z" fill="white"/>
</svg>
